<svg width="27" height="25" viewBox="0 0 27 25" fill="none" xmlns="http://www.w3.org/2000/svg">
<path d="M7.65527 13.2197C10.8721 13.2197 12.8232 10.6973 12.8232 6.66309V6.64551C12.8232 2.61133 10.8721 0.0976562 7.65527 0.0976562C4.43848 0.0976562 2.4873 2.61133 2.4873 6.64551V6.66309C2.4873 10.6973 4.43848 13.2197 7.65527 13.2197ZM7.65527 11.0928C6.07324 11.0928 5.16797 9.44922 5.16797 6.66309V6.64551C5.16797 3.85938 6.07324 2.22461 7.65527 2.22461C9.2373 2.22461 10.1426 3.85938 10.1426 6.64551V6.66309C10.1426 9.44922 9.2373 11.0928 7.65527 11.0928ZM19.4062 13.2197C22.4297 13.2197 24.5127 11.7168 24.5127 9.53711V9.51953C24.5127 7.87598 23.291 6.66309 21.5947 6.3291V6.27637C23.0537 5.91602 24.0557 4.85254 24.0557 3.49902V3.48145C24.0557 1.52148 22.1396 0.0976562 19.4062 0.0976562C16.6641 0.0976562 14.7568 1.52148 14.7568 3.48145V3.49902C14.7568 4.85254 15.75 5.91602 17.2178 6.27637V6.3291C15.5127 6.66309 14.291 7.87598 14.291 9.51953V9.53711C14.291 11.7168 16.3828 13.2197 19.4062 13.2197ZM19.4062 5.47656C18.2109 5.47656 17.376 4.76465 17.376 3.74512V3.72754C17.376 2.7168 18.2197 2.01367 19.4062 2.01367C20.5928 2.01367 21.4277 2.7168 21.4277 3.72754V3.74512C21.4277 4.76465 20.6016 5.47656 19.4062 5.47656ZM19.4062 11.2861C18.0176 11.2861 17.042 10.4775 17.042 9.36133V9.34375C17.042 8.21875 18.0088 7.40137 19.4062 7.40137C20.8037 7.40137 21.7617 8.21875 21.7617 9.34375V9.36133C21.7617 10.4775 20.7861 11.2861 19.4062 11.2861ZM0.199219 25H1.51758L2.11328 23.1787H4.73535L5.33105 25H6.6543L4.13477 17.9541H2.71875L0.199219 25ZM3.41211 19.209H3.44141L4.41797 22.207H2.43066L3.41211 19.209ZM7.40625 25H8.66602V22.6709H10.1211C11.5469 22.6709 12.5186 21.7236 12.5186 20.3174V20.3076C12.5186 18.8965 11.5469 17.9541 10.1211 17.9541H7.40625V25ZM9.80859 18.9844C10.7119 18.9844 11.2393 19.4678 11.2393 20.3125V20.3223C11.2393 21.167 10.7119 21.6553 9.80859 21.6553H8.66602V18.9844H9.80859ZM13.4414 25H14.7012V22.3633H16.0635L17.4502 25H18.8857L17.3477 22.1729C18.168 21.875 18.6758 21.1084 18.6758 20.1611V20.1514C18.6758 18.7891 17.7578 17.9541 16.2539 17.9541H13.4414V25ZM14.7012 21.3672V18.9746H16.0977C16.8887 18.9746 17.3867 19.4238 17.3867 20.1611V20.1709C17.3867 20.9277 16.918 21.3672 16.1221 21.3672H14.7012ZM19.6914 25H20.9512V17.9541H19.6914V25ZM22.1914 25H26.6494V23.9404H23.4512V17.9541H22.1914V25Z" fill="#868597"/>
</svg>
